<svg xmlns="http://www.w3.org/2000/svg" viewBox="0 0 15.21 15.21"><defs><style>.a{fill:#34669a;}.b{fill:#2f5e8c;}</style></defs><title>pin</title><path class="a" d="M8,15.11A.48.48,0,0,1,7.68,15L1,8.32a.47.47,0,0,1,0-.64L7.68,1a.46.46,0,0,1,.64,0L15,7.68a.47.47,0,0,1,0,.64L8.32,15A.48.48,0,0,1,8,15.11Z" transform="translate(-0.39 -0.39)"/><path class="b" d="M8,1.41,14.59,8,8,14.59,1.41,8,8,1.41m0-1a1,1,0,0,0-.67.28L.67,7.33a1,1,0,0,0,0,1.34l6.66,6.66a.94.94,0,0,0,1.34,0l6.66-6.66a1,1,0,0,0,0-1.34L8.67.67A1,1,0,0,0,8,.39Z" transform="translate(-0.39 -0.39)"/></svg>