<svg xmlns="http://www.w3.org/2000/svg" viewBox="0 0 694.82 694.82"><defs><style>.a{fill:#396;}.b{fill:#063;}.c{fill:#fff;}</style></defs><title>logo</title><path class="a" d="M400,745.41a41,41,0,0,1-29.19-12.09L66.68,429.19a41.28,41.28,0,0,1,0-58.38L370.81,66.68A41,41,0,0,1,400,54.59h0a41,41,0,0,1,29.19,12.09L733.32,370.81a41.34,41.34,0,0,1,0,58.38L429.19,733.32A41,41,0,0,1,400,745.41Z" transform="translate(-52.59 -52.59)"/><path class="b" d="M400,56.59A39,39,0,0,1,427.78,68.1L731.9,372.22a39.33,39.33,0,0,1,0,55.56L427.78,731.9a39.28,39.28,0,0,1-55.56,0L68.1,427.78a39.33,39.33,0,0,1,0-55.56L372.22,68.1A39,39,0,0,1,400,56.59m0-4a43.14,43.14,0,0,0-30.6,12.68L65.27,369.4a43.26,43.26,0,0,0,0,61.2L369.4,734.73a43.26,43.26,0,0,0,61.2,0L734.73,430.6a43.26,43.26,0,0,0,0-61.2L430.6,65.27A43.14,43.14,0,0,0,400,52.59Z" transform="translate(-52.59 -52.59)"/><path class="c" d="M471.21,189.48c-1.13,0-2.69,0-4.69-.14-2.27-.09-3.84-.13-4.73-.13,0,.91.08,2.6.17,5.06.06,2.11.1,3.78.1,5,0,.86-1.68,1.3-5,1.3s-4.86-.28-4.86-.84c0-1.37,0-3.15.1-5.32.06-3,.11-4.77.13-5.3l-9.22.27c-.4,0-.6-.35-.6-1,0-.23.11-1.49.33-3.8,0-1.33.07-2.7.14-4.09a1,1,0,0,1,.9-.5c1.08,0,2.49,0,4.22.1,2.31.06,3.72.11,4.23.13,0-1.95-.07-4-.07-6.26v-3.63q0-.63.87-.63c.82,0,2,0,3.65-.07s2.81-.06,3.61-.06c1.09,0,1.63.18,1.63.56,0,1.11,0,2.8-.12,5.06s-.11,4-.11,5.1q7.13-.14,9.68-.14c.47,0,.7.2.7.6,0,.25-.12,1.61-.36,4.1a24.92,24.92,0,0,1-.2,4.16C471.59,189.32,471.43,189.48,471.21,189.48Z" transform="translate(-52.59 -52.59)"/><path class="c" d="M435,189.48c-1.13,0-2.69,0-4.69-.14-2.26-.09-3.84-.13-4.73-.13,0,.91.08,2.6.17,5.06.06,2.11.1,3.78.1,5,0,.86-1.68,1.3-5,1.3s-4.86-.28-4.86-.84c0-1.37,0-3.15.1-5.32.07-3,.11-4.77.13-5.3l-9.22.27c-.4,0-.6-.35-.6-1,0-.23.11-1.49.33-3.8,0-1.33.07-2.7.14-4.09a1,1,0,0,1,.9-.5c1.08,0,2.49,0,4.23.1,2.3.06,3.71.11,4.22.13q-.06-2.92-.06-6.26v-3.63c0-.42.28-.63.86-.63.82,0,2,0,3.65-.07s2.81-.06,3.61-.06c1.09,0,1.63.18,1.63.56,0,1.11,0,2.8-.11,5.06s-.12,4-.12,5.1q7.13-.14,9.69-.14c.46,0,.7.2.7.6,0,.25-.13,1.61-.37,4.1a24.92,24.92,0,0,1-.2,4.16C435.41,189.32,435.25,189.48,435,189.48Z" transform="translate(-52.59 -52.59)"/><path class="c" d="M401.07,208.57a4.53,4.53,0,0,1-1.25,2.5q-10.92,13-29,13-18.53,0-30.05-12.65-11.22-12.22-11.22-30.87,0-18,11-30.64,11.46-13.17,29.15-13.18,19.23,0,30.16,11.82a3.72,3.72,0,0,1,1.19,2.31c0,.75-1.38,3.55-4.13,8.37s-4.48,7.54-5.19,8.14a1.61,1.61,0,0,1-1.19.47,15.65,15.65,0,0,1-3-2.37,31.25,31.25,0,0,0-6.29-4.45,21.25,21.25,0,0,0-9.74-2.38,17,17,0,0,0-13.95,6.53,23.3,23.3,0,0,0-4.81,15q0,9,4.81,15.14a16.81,16.81,0,0,0,13.95,6.65,22.17,22.17,0,0,0,9.8-2.25,30.56,30.56,0,0,0,6.17-4.16,15.35,15.35,0,0,1,2.91-2.26,1.67,1.67,0,0,1,1.19.66q.94,1.07,5.16,7.42C399.62,205.72,401.07,208.14,401.07,208.57Z" transform="translate(-52.59 -52.59)"/><path class="c" d="M447,380.5h51a15.18,15.18,0,0,1,15.19,15.07l.11,15.63a15.18,15.18,0,0,1-15.12,15.3l-51.23.21a15.18,15.18,0,0,0-15.12,15.18v77.44a15.19,15.19,0,0,1-15.19,15.19H393.39a15.19,15.19,0,0,1-15.19-15.19V298.41a15.19,15.19,0,0,1,15.19-15.19H525.52a15.19,15.19,0,0,1,15.18,15.19V314a15.19,15.19,0,0,1-15.18,15.19H447a15.18,15.18,0,0,0-15.18,15.18v21A15.19,15.19,0,0,0,447,380.5Z" transform="translate(-52.59 -52.59)"/><path class="c" d="M352.12,283.22H306.24a15.13,15.13,0,0,0-14.57,11.07L249.91,444.67,208.47,294.32a15.13,15.13,0,0,0-14.57-11.1H164L133.6,313.66V486.77L177,530.15a15.07,15.07,0,0,0,4.49-10.75V363.61L226.58,523.5a15.11,15.11,0,0,0,14.54,11h17.95a15.13,15.13,0,0,0,14.54-11l45.75-160.28V519.4a15.12,15.12,0,0,0,15.12,15.12h17.64a15.11,15.11,0,0,0,15.11-15.12V298.34A15.11,15.11,0,0,0,352.12,283.22Z" transform="translate(-52.59 -52.59)"/><path class="c" d="M665.13,487.58h-47a15,15,0,0,1-15-15V297.23a15,15,0,0,0-15-15H564.55a15,15,0,0,0-15,15V518.51a15,15,0,0,0,15,15H619.2Z" transform="translate(-52.59 -52.59)"/></svg>