<svg xmlns="http://www.w3.org/2000/svg" viewBox="0 0 492.44 456.74"><defs><style>.a{fill:#5472af;}.b{fill:#fff;}</style></defs><title>logo</title><path class="a" d="M403.88,159Z" transform="translate(-9.78 -27.63)"/><path class="a" d="M497.84,246.16,442.58,194.9,403.88,159,266.61,31.69a15.9,15.9,0,0,0-21.22,0L107.73,159.37,85.86,179.65l-71.7,66.51a13.24,13.24,0,0,0,0,19.68l73.58,68.25,37.7,35,120,111.25a15.9,15.9,0,0,0,21.22,0L497.84,265.84A13.24,13.24,0,0,0,497.84,246.16Z" transform="translate(-9.78 -27.63)"/><path class="b" d="M268.3,345.5a10,10,0,0,1-10,10H240.87a10,10,0,0,1-10-10V221.85l-36.15,126.4a10,10,0,0,1-9.61,7.25h-16.8a10,10,0,0,1-9.62-7.28L123.05,222.11l2.31,142.3L92.75,334.1h0l-5.06-4.71L85.92,184.22l26.81-24.85h21.42a10,10,0,0,1,9.64,7.34l32.78,118.67,33-118.69a10,10,0,0,1,9.63-7.32H258.3a10,10,0,0,1,10,10Z" transform="translate(-9.78 -27.63)"/><path class="b" d="M362.39,235a10,10,0,0,1,10,9.92l.12,15.95A10,10,0,0,1,362.56,271l-39.84.21v74.19a10,10,0,0,1-10,10h-22a10,10,0,0,1-10-10V159H398.88l38.7,35.89H322.72V235Z" transform="translate(-9.78 -27.63)"/><path class="b" d="M271.35,117.31a1,1,0,0,0-.08-.44.33.33,0,0,0-.28-.15h-4.52c0-.53,0-1.3,0-2.31s0-1.79,0-2.31q-.09-.36-1.23-.36H263c-.33,0-.53.05-.62.15a1.22,1.22,0,0,0-.15.62v4.1H258c-.31,0-.51.06-.59.18a1.53,1.53,0,0,0-.12.75c0,.18,0,.44,0,.79s0,.62,0,.8a2.16,2.16,0,0,1,0,.31v.36c0,.71.14,1.09.43,1.15l1,0h1.45l.48,0,.57,0h.82l.31,0v4.75h3.13a1.61,1.61,0,0,0,.76-.12.62.62,0,0,0,.19-.54v-2.16c0-.48,0-1.2-.05-2.16h4.75c.12,0,.18-.25.18-.74v-.44c0-.25,0-.62,0-1.12S271.35,117.56,271.35,117.31Z" transform="translate(-9.78 -27.63)"/><path class="b" d="M278.66,121v4.75h3.13a1.61,1.61,0,0,0,.76-.12.62.62,0,0,0,.2-.54v-2.16q0-.72-.06-2.16h4.75c.12,0,.18-.25.18-.74v-.44c0-.25,0-.62,0-1.12s0-.86,0-1.11a1,1,0,0,0-.08-.44.32.32,0,0,0-.28-.15h-4.52c0-.53,0-1.3,0-2.31s0-1.79,0-2.31c-.06-.24-.47-.36-1.24-.36h-2.31c-.32,0-.53.05-.61.15a1.11,1.11,0,0,0-.16.62v4.1h-4.13q-.48,0-.6.18a1.53,1.53,0,0,0-.12.75c0,.18,0,.44,0,.79s0,.62,0,.8a1.19,1.19,0,0,1,0,.31v.36c0,.71.15,1.09.44,1.15l1,0h1.45l.49,0,.56,0h.82Z" transform="translate(-9.78 -27.63)"/><path class="b" d="M261,132.55a21.86,21.86,0,0,0-2.19-3.66c-1.42-2.14-2.3-3.4-2.62-3.76a.84.84,0,0,0-.6-.33,7.65,7.65,0,0,0-1.47,1.14,14.93,14.93,0,0,1-3.12,2.11,11.2,11.2,0,0,1-5,1.14,8.51,8.51,0,0,1-7.06-3.37,12,12,0,0,1-2.43-7.66,11.82,11.82,0,0,1,2.43-7.57,8.59,8.59,0,0,1,7.06-3.3,10.8,10.8,0,0,1,4.93,1.2,15.52,15.52,0,0,1,3.18,2.26,8,8,0,0,0,1.5,1.2.81.81,0,0,0,.6-.24,24.5,24.5,0,0,0,2.63-4.12,18.92,18.92,0,0,0,2.09-4.23,1.92,1.92,0,0,0-.6-1.18q-5.52-6-15.26-6a18.68,18.68,0,0,0-14.75,6.67,22.76,22.76,0,0,0-5.56,15.49q0,9.43,5.68,15.62,5.84,6.4,15.2,6.4a18.2,18.2,0,0,0,14.69-6.58A2.28,2.28,0,0,0,261,132.55Z" transform="translate(-9.78 -27.63)"/></svg>